<?xml version="1.0" encoding="UTF-8"?>
<svg width="285px" height="215px" viewBox="0 0 285 215" version="1.1" xmlns="http://www.w3.org/2000/svg" xmlns:xlink="http://www.w3.org/1999/xlink">
    <!-- Generator: Sketch 40.3 (33839) - http://www.bohemiancoding.com/sketch -->
    <title>Group 11</title>
    <desc>Created with Sketch.</desc>
    <defs>
        <rect id="path-1" x="0" y="0" width="285" height="214.010989" rx="7"></rect>
        <mask id="mask-2" maskContentUnits="userSpaceOnUse" maskUnits="objectBoundingBox" x="0" y="0" width="285" height="214.010989" fill="white">
            <use xlink:href="#path-1"></use>
        </mask>
    </defs>
    <g id="Page-1" stroke="none" stroke-width="1" fill="none" fill-rule="evenodd">
        <g id="Group-11">
            <use id="Rectangle-164" stroke="#0D83D1" mask="url(#mask-2)" stroke-width="3" stroke-linecap="round" stroke-linejoin="round" stroke-dasharray="15" xlink:href="#path-1"></use>
            <path d="M86.237505,91.7189953 L82.1333074,86.0580572 C80.7945846,84.2115509 78.6645884,84.1513341 77.235225,85.9126985 L1.65111781,179.052878 C1.3901098,179.37451 0.917786057,179.423657 0.596153198,179.162649 C0.274520339,178.901641 0.225374186,178.429317 0.486382193,178.107684 L76.0704894,84.9675049 C78.1218268,82.4396994 81.4305494,82.5332397 83.3477212,85.1776034 L88.0902506,91.7189953 L86.237505,91.7189953 Z M114.736029,131.027136 L127.196029,148.21327 C129.110965,150.85455 132.40968,150.928345 134.425025,148.374161 L148.112462,131.027136 L146.201755,131.027136 L133.24745,147.445012 C131.849251,149.217045 129.742343,149.169912 128.410443,147.332816 L116.588774,131.027136 L114.736029,131.027136 Z M179.128023,91.7189953 L212.6713,49.2073083 C214.093515,47.4048378 216.479579,47.301987 218.052465,48.9716071 L283.66242,118.616643 C283.946449,118.91814 284.421111,118.932301 284.722608,118.648272 C285.024105,118.364243 285.038266,117.88958 284.754237,117.588083 L219.144282,47.9430474 C216.943607,45.607029 213.483668,45.7561688 211.493725,48.278159 L177.217316,91.7189953 L179.128023,91.7189953 Z" id="Combined-Shape" fill="#0D83D1"></path>
            <path d="M59.8875,49.1432641 C59.8875,37.3037381 50.3010022,27.7055352 38.475,27.7055352 C26.6489978,27.7055352 17.0625,37.3037381 17.0625,49.1432641 C17.0625,60.9827902 26.6489978,70.5809931 38.475,70.5809931 C50.3010022,70.5809931 59.8875,60.9827902 59.8875,49.1432641 Z M18.5625,49.1432641 C18.5625,38.1317558 27.4778349,29.2055352 38.475,29.2055352 C49.4721651,29.2055352 58.3875,38.1317558 58.3875,49.1432641 C58.3875,60.1547725 49.4721651,69.0809931 38.475,69.0809931 C27.4778349,69.0809931 18.5625,60.1547725 18.5625,49.1432641 Z" id="Oval-43" fill="#0D83D1"></path>
        </g>
    </g>
</svg>