<?xml version="1.0" encoding="UTF-8"?>
<svg width="25px" height="25px" viewBox="0 0 25 25" version="1.1" xmlns="http://www.w3.org/2000/svg" xmlns:xlink="http://www.w3.org/1999/xlink">
    <!-- Generator: Sketch 40.3 (33839) - http://www.bohemiancoding.com/sketch -->
    <title>Artboard</title>
    <desc>Created with Sketch.</desc>
    <defs></defs>
    <g id="Page-1" stroke="none" stroke-width="1" fill="none" fill-rule="evenodd">
        <g id="Artboard" fill="#0D83D1">
            <g id="Group-10" transform="translate(4.000000, 6.000000)">
                <path d="M15,8 C15.5522847,8 16,7.55228475 16,7 C16,6.44771525 15.5522847,6 15,6 L1,6 C0.44771525,6 0,6.44771525 0,7 C0,7.55228475 0.44771525,8 1,8 L15,8 Z" id="Path-2"></path>
                <path d="M15.2928932,7.70523266 L15.2928932,6.2910191 L9.29289322,12.2910191 C8.90236893,12.6815434 8.90236893,13.3147084 9.29289322,13.7052327 C9.68341751,14.095757 10.3165825,14.095757 10.7071068,13.7052327 L16.7071068,7.70523266 C17.0976311,7.31470837 17.0976311,6.68154339 16.7071068,6.2910191 L10.7089809,0.292893219 C10.3184566,-0.0976310729 9.68529163,-0.0976310729 9.29476734,0.292893219 C8.90424305,0.683417511 8.90424305,1.31658249 9.29476734,1.70710678 L15.2928932,7.70523266 Z" id="Path-3"></path>
            </g>
        </g>
    </g>
</svg>