<?xml version="1.0" encoding="UTF-8" standalone="no"?>
<svg width="500px" height="500px" viewBox="0 0 500 500" version="1.1" xmlns="http://www.w3.org/2000/svg" xmlns:xlink="http://www.w3.org/1999/xlink">
    <!-- Generator: Sketch 39.1 (31720) - http://www.bohemiancoding.com/sketch -->
    <title>Group 11</title>
    <desc>Created with Sketch.</desc>
    <defs></defs>
    <g id="Page-1" stroke="none" stroke-width="1" fill="none" fill-rule="evenodd">
        <g id="Group-11">
            <circle id="Mask" fill="#0D83D1" cx="250" cy="250" r="250"></circle>
            <path d="M400.509353,279.440303 C401.320337,289.403818 398.192257,298.788058 391.820242,305.971057 C384.984807,313.617475 374.789583,317.788249 363.319956,317.788249 L115.043075,317.788249 L115.043075,317.788249 L114.69551,317.788249 L114.579655,317.788249 L114.347946,317.788249 L114.347946,317.788249 C104.268576,317.672394 94.768481,313.73333 87.7013369,306.666186 C80.1707736,299.251477 76.1158548,289.287963 76,278.745174 L76,278.745174 C76,259.165709 89.3233044,243.293599 107.512511,240.281374 C109.945463,223.945844 124.195605,210.622539 141.805538,207.842024 C142.848232,201.354154 145.976312,195.097993 150.958069,190.000381 C158.141068,182.585673 167.872873,178.414899 177.836388,178.414899 C190.696273,178.414899 201.93419,185.366188 207.958641,195.793122 C215.025785,170.536771 238.196749,152 265.654342,152 C295.66074,152 320.685382,174.244126 324.856155,203.207831 C339.917282,191.969913 359.960166,193.012607 375.021293,207.146895 L373.399325,205.756637 C385.448227,215.488442 389.619,228.695891 389.039726,239.817954 C388.692162,246.421679 386.49092,252.21442 382.551856,256.964468 C386.375065,258.238871 389.503145,260.440112 392.515371,263.452338 C396.686144,267.623111 399.582515,272.836578 400.393498,278.629319 L400.393498,278.629319 C400.393498,278.861029 400.393498,279.092739 400.509353,279.440303 C400.509353,279.092739 400.509353,279.208593 400.509353,279.440303 L400.509353,279.440303 Z M419.161979,185.945463 C410.357013,174.012416 397.265418,165.20745 382.899421,161.500095 C379.655486,160.804966 376.295696,163.006208 375.600567,166.134288 C374.326164,169.378223 376.411551,173.548997 379.887195,174.244126 C394.369048,178.067335 406.881368,188.262559 413.485093,201.701718 C418.93027,212.707926 420.320528,225.683666 417.308302,237.616713 C416.497319,240.976502 418.93027,244.568002 422.405914,245.031421 C425.533995,245.95826 429.009639,244.104583 430.052333,241.092357 C434.80238,222.439731 430.747462,201.470009 419.161979,185.945463 L419.161979,185.945463 Z M377.801808,184.091785 C372.820051,183.164947 368.996842,189.305252 371.198084,193.591881 C372.009067,195.445558 373.862744,196.719961 375.832276,197.18338 C383.36284,199.152912 389.966565,204.366379 393.442209,211.317668 C396.570289,217.457974 397.265418,224.640973 395.527596,231.244697 C394.600757,234.604487 397.033709,238.311842 400.509353,238.891116 C403.637433,239.817954 407.344788,237.964277 408.271626,234.720342 C411.515561,222.90315 409.08261,209.695701 401.899611,199.848041 C396.10687,191.969913 387.417759,185.945463 377.801808,184.091785 L377.801808,184.091785 Z" id="Shape" fill="#FFFFFF"></path>
        </g>
    </g>
</svg>