<?xml version="1.0" encoding="utf-8"?>
<!-- Generator: Adobe Illustrator 16.0.0, SVG Export Plug-In . SVG Version: 6.00 Build 0)  -->
<!DOCTYPE svg PUBLIC "-//W3C//DTD SVG 1.1//EN" "http://www.w3.org/Graphics/SVG/1.1/DTD/svg11.dtd">
<svg version="1.1" id="Layer_1" xmlns="http://www.w3.org/2000/svg" xmlns:xlink="http://www.w3.org/1999/xlink" x="0px" y="0px"
	 width="510px" height="236px" viewBox="0 175 510 236" style="enable-background:new 0 175 510 236;" xml:space="preserve">
<title>Artboard</title>
<desc>Created with Sketch.</desc>
<g id="Page-1">
	<g id="Artboard">
		<g id="Group" transform="translate(49.000000, 182.000000)">
			<path id="Rectangle-16" style="fill:#0D83D1;" d="M53.5,2h305C409.034,2,450,42.966,450,93.5l0,0c0,50.534-40.966,91.5-91.5,91.5
				h-305C2.966,185-38,144.034-38,93.5l0,0C-38,42.966,2.966,2,53.5,2z"/>
			<path id="Path-17" style="fill:#0D83D1;" d="M429.5,151c0,0-2,2-6.5,9s-4.517,19.32-4,25c1,11,6,39,6,39s-27.542-22.653-39-28.5
				c-10.778-5.5-24.5-10.5-34.5-10.5h-6.493c0.549,0,1.404-0.16,1.925-0.364L401,163.5L429.5,151z"/>
			<path id="Feedback" style="fill:#FFFFFF;" d="M50.547,73.55v19.038h22.382v6.004H50.547V122h-7.372V67.546h33.554v6.004H50.547z
				 M110.245,98.554c0-1.571-0.222-3.008-0.665-4.313s-1.089-2.432-1.938-3.382c-0.849-0.95-1.881-1.685-3.097-2.204
				c-1.216-0.52-2.597-0.779-4.142-0.779c-3.243,0-5.808,0.944-7.695,2.831s-3.059,4.503-3.515,7.847H110.245z M115.717,116.604
				c-0.836,1.014-1.836,1.895-3.002,2.642c-1.165,0.747-2.413,1.361-3.743,1.843c-1.33,0.481-2.705,0.842-4.123,1.083
				c-1.419,0.241-2.825,0.361-4.218,0.361c-2.66,0-5.111-0.45-7.353-1.349c-2.242-0.9-4.18-2.217-5.814-3.953
				c-1.634-1.734-2.907-3.882-3.819-6.44s-1.368-5.498-1.368-8.816c0-2.686,0.412-5.193,1.235-7.524
				c0.823-2.331,2.007-4.351,3.553-6.061s3.433-3.053,5.662-4.028c2.229-0.975,4.737-1.463,7.524-1.463
				c2.305,0,4.439,0.386,6.403,1.159c1.963,0.772,3.661,1.887,5.092,3.344c1.431,1.457,2.552,3.255,3.363,5.396
				c0.811,2.141,1.216,4.579,1.216,7.315c0,1.064-0.114,1.773-0.342,2.128c-0.228,0.354-0.659,0.532-1.292,0.532H88.965
				c0.076,2.432,0.412,4.547,1.007,6.346c0.595,1.798,1.425,3.3,2.489,4.503s2.331,2.103,3.8,2.697
				c1.47,0.596,3.116,0.894,4.94,0.894c1.697,0,3.16-0.196,4.389-0.589c1.229-0.393,2.287-0.816,3.173-1.273
				c0.886-0.455,1.627-0.88,2.223-1.272c0.596-0.393,1.108-0.589,1.539-0.589c0.558,0,0.988,0.215,1.292,0.646L115.717,116.604z
				 M153.603,98.554c0-1.571-0.222-3.008-0.665-4.313s-1.089-2.432-1.938-3.382c-0.849-0.95-1.881-1.685-3.097-2.204
				c-1.216-0.52-2.597-0.779-4.142-0.779c-3.242,0-5.808,0.944-7.695,2.831s-3.059,4.503-3.515,7.847H153.603z M159.075,116.604
				c-0.836,1.014-1.837,1.895-3.002,2.642c-1.166,0.747-2.413,1.361-3.743,1.843s-2.705,0.842-4.123,1.083
				c-1.419,0.241-2.825,0.361-4.218,0.361c-2.66,0-5.111-0.45-7.354-1.349c-2.242-0.9-4.18-2.217-5.813-3.953
				c-1.634-1.734-2.907-3.882-3.819-6.44s-1.368-5.498-1.368-8.816c0-2.686,0.412-5.193,1.235-7.524
				c0.823-2.331,2.007-4.351,3.553-6.061s3.433-3.053,5.662-4.028c2.229-0.975,4.737-1.463,7.524-1.463
				c2.306,0,4.44,0.386,6.403,1.159c1.963,0.772,3.661,1.887,5.092,3.344s2.552,3.255,3.363,5.396
				c0.811,2.141,1.216,4.579,1.216,7.315c0,1.064-0.114,1.773-0.342,2.128c-0.228,0.354-0.659,0.532-1.292,0.532h-25.726
				c0.076,2.432,0.412,4.547,1.007,6.346c0.595,1.798,1.425,3.3,2.489,4.503s2.331,2.103,3.8,2.697
				c1.469,0.596,3.116,0.894,4.94,0.894c1.697,0,3.16-0.196,4.389-0.589c1.229-0.393,2.286-0.816,3.173-1.273
				c0.887-0.455,1.627-0.88,2.223-1.272c0.596-0.393,1.108-0.589,1.539-0.589c0.558,0,0.988,0.215,1.292,0.646L159.075,116.604z
				 M196.277,92.664c-1.267-1.697-2.634-2.882-4.104-3.553c-1.469-0.671-3.116-1.007-4.94-1.007c-3.572,0-6.321,1.279-8.246,3.838
				s-2.888,6.207-2.888,10.944c0,2.508,0.215,4.655,0.646,6.441s1.064,3.255,1.9,4.407c0.836,1.153,1.862,1.996,3.078,2.527
				c1.216,0.532,2.597,0.799,4.142,0.799c2.229,0,4.173-0.508,5.833-1.521c1.659-1.013,3.186-2.444,4.579-4.294V92.664z
				 M203.041,66.026V122h-4.028c-0.963,0-1.571-0.469-1.824-1.406l-0.608-4.674c-1.646,1.977-3.521,3.572-5.624,4.788
				s-4.535,1.824-7.296,1.824c-2.204,0-4.206-0.425-6.004-1.273c-1.799-0.849-3.332-2.097-4.598-3.743s-2.242-3.698-2.926-6.156
				c-0.684-2.457-1.026-5.282-1.026-8.474c0-2.837,0.38-5.478,1.14-7.923c0.76-2.444,1.849-4.566,3.268-6.365
				c1.418-1.799,3.16-3.211,5.225-4.237c2.064-1.026,4.389-1.539,6.973-1.539c2.356,0,4.376,0.399,6.061,1.197
				s3.186,1.906,4.503,3.325V66.026H203.041z M223.789,112.729c1.241,1.672,2.603,2.85,4.085,3.533s3.109,1.026,4.883,1.026
				c3.623,0,6.396-1.279,8.322-3.838c1.925-2.559,2.888-6.372,2.888-11.438c0-4.712-0.854-8.176-2.564-10.393
				s-4.148-3.325-7.315-3.325c-2.204,0-4.123,0.507-5.757,1.52s-3.147,2.445-4.541,4.294V112.729z M223.789,89.054
				c1.621-1.875,3.451-3.37,5.491-4.484c2.039-1.115,4.389-1.672,7.049-1.672c2.255,0,4.288,0.431,6.099,1.292
				c1.812,0.861,3.351,2.109,4.617,3.743c1.267,1.634,2.235,3.616,2.907,5.947c0.671,2.331,1.007,4.953,1.007,7.866
				c0,3.116-0.38,5.953-1.14,8.512c-0.761,2.559-1.856,4.744-3.287,6.555c-1.432,1.812-3.173,3.218-5.226,4.219
				c-2.052,1-4.357,1.501-6.916,1.501c-2.533,0-4.667-0.476-6.402-1.425c-1.735-0.95-3.249-2.299-4.541-4.047l-0.342,3.496
				c-0.203,0.962-0.786,1.443-1.748,1.443h-4.37V66.026h6.802V89.054z M283.639,104.672c-3.115,0.102-5.77,0.349-7.961,0.741
				s-3.977,0.906-5.357,1.539s-2.382,1.38-3.002,2.242c-0.621,0.861-0.932,1.824-0.932,2.888c0,1.014,0.165,1.887,0.494,2.622
				c0.329,0.734,0.779,1.337,1.35,1.805c0.569,0.469,1.241,0.812,2.014,1.026s1.603,0.322,2.489,0.322
				c1.19,0,2.279-0.119,3.268-0.36s1.919-0.589,2.793-1.045s1.71-1.001,2.508-1.634c0.798-0.634,1.577-1.355,2.337-2.166V104.672z
				 M261.789,88.94c2.128-2.052,4.421-3.584,6.878-4.598c2.457-1.013,5.181-1.52,8.17-1.52c2.153,0,4.066,0.354,5.738,1.063
				c1.672,0.709,3.078,1.698,4.218,2.964s2.001,2.799,2.584,4.598c0.583,1.798,0.874,3.774,0.874,5.928V122h-3.002
				c-0.659,0-1.165-0.107-1.521-0.323c-0.354-0.215-0.633-0.64-0.836-1.272l-0.76-3.648c-1.014,0.938-2.001,1.768-2.964,2.489
				s-1.976,1.33-3.04,1.823c-1.063,0.494-2.197,0.875-3.4,1.141c-1.204,0.266-2.54,0.398-4.01,0.398c-1.494,0-2.9-0.209-4.218-0.627
				s-2.464-1.045-3.438-1.881c-0.976-0.836-1.748-1.893-2.318-3.173c-0.57-1.279-0.855-2.793-0.855-4.541
				c0-1.52,0.418-2.983,1.254-4.389c0.836-1.406,2.191-2.654,4.066-3.743s4.319-1.982,7.334-2.679
				c3.015-0.697,6.713-1.096,11.096-1.197v-3.002c0-2.989-0.646-5.25-1.938-6.783c-1.292-1.532-3.18-2.299-5.662-2.299
				c-1.672,0-3.071,0.209-4.199,0.627c-1.127,0.418-2.103,0.887-2.926,1.406c-0.823,0.519-1.533,0.988-2.128,1.406
				c-0.596,0.418-1.185,0.627-1.767,0.627c-0.457,0-0.85-0.12-1.179-0.361s-0.607-0.538-0.836-0.893L261.789,88.94z M330.569,90.346
				c-0.203,0.278-0.405,0.494-0.608,0.646c-0.203,0.152-0.481,0.228-0.836,0.228c-0.38,0-0.798-0.158-1.254-0.475
				c-0.456-0.317-1.02-0.665-1.691-1.045c-0.671-0.38-1.494-0.729-2.47-1.045c-0.976-0.317-2.172-0.475-3.591-0.475
				c-1.9,0-3.572,0.335-5.016,1.007c-1.444,0.671-2.654,1.64-3.63,2.907c-0.975,1.267-1.71,2.8-2.204,4.598
				c-0.493,1.799-0.74,3.813-0.74,6.042c0,2.331,0.266,4.402,0.798,6.213c0.532,1.811,1.285,3.331,2.261,4.56
				c0.976,1.229,2.153,2.166,3.534,2.812c1.381,0.646,2.933,0.97,4.655,0.97c1.646,0,3.002-0.196,4.065-0.589
				c1.064-0.393,1.944-0.83,2.642-1.311c0.696-0.482,1.279-0.919,1.748-1.312s0.931-0.589,1.387-0.589
				c0.558,0,0.988,0.215,1.292,0.646l1.899,2.47c-0.836,1.039-1.785,1.926-2.85,2.66s-2.21,1.35-3.439,1.844
				c-1.229,0.494-2.514,0.854-3.856,1.082c-1.343,0.229-2.711,0.343-4.104,0.343c-2.406,0-4.642-0.443-6.707-1.33
				c-2.064-0.887-3.856-2.173-5.377-3.857c-1.52-1.685-2.71-3.755-3.571-6.213c-0.861-2.457-1.292-5.256-1.292-8.398
				c0-2.863,0.398-5.51,1.196-7.942c0.799-2.432,1.964-4.528,3.496-6.289c1.533-1.761,3.42-3.135,5.662-4.123
				c2.242-0.988,4.82-1.482,7.733-1.482c2.711,0,5.098,0.437,7.163,1.311c2.064,0.874,3.895,2.109,5.491,3.705L330.569,90.346z
				 M350.101,66.026v32.946h1.748c0.507,0,0.932-0.07,1.273-0.209c0.342-0.14,0.703-0.424,1.083-0.855l12.16-13.034
				c0.354-0.431,0.729-0.767,1.121-1.007c0.393-0.241,0.918-0.361,1.576-0.361h6.118l-14.174,15.086
				c-0.684,0.861-1.419,1.533-2.204,2.014c0.456,0.304,0.868,0.652,1.235,1.045c0.367,0.393,0.716,0.842,1.045,1.349l15.048,19
				h-6.042c-0.583,0-1.083-0.095-1.501-0.285c-0.418-0.189-0.779-0.538-1.083-1.045l-12.654-15.77
				c-0.38-0.532-0.753-0.88-1.12-1.045c-0.368-0.165-0.932-0.247-1.691-0.247h-1.938V122h-6.802V66.026H350.101z"/>
		</g>
	</g>
</g>
</svg>
