<?xml version="1.0" encoding="UTF-8" standalone="no"?>
<svg width="554px" height="867px" viewBox="0 0 554 867" version="1.1" xmlns="http://www.w3.org/2000/svg" xmlns:xlink="http://www.w3.org/1999/xlink">
    <!-- Generator: Sketch 39.1 (31720) - http://www.bohemiancoding.com/sketch -->
    <title>Group 8</title>
    <desc>Created with Sketch.</desc>
    <defs></defs>
    <g id="Page-1" stroke="none" stroke-width="1" fill="none" fill-rule="evenodd">
        <g id="Group-8">
            <path d="M277,867 C277,867 554,429.982876 554,277 C554,124.017124 429.982876,0 277,0 C124.017124,0 0,124.017124 0,277 C0,429.982876 277,867 277,867 Z" id="Oval" fill="#0D83D1"></path>
            <g id="Group-6" transform="translate(122.000000, 160.000000)" fill="#FFFFFF">
                <path d="M39.2954454,132.28416 C33.3123018,137.606952 32.7769816,146.772224 38.0997741,152.755368 C43.4225667,158.738512 52.5878388,159.273832 58.5709824,153.951039 C114.418554,104.267285 199.017656,107.240426 247.443169,160.249958 C252.844356,166.162428 262.015888,166.576905 267.928358,161.175717 C273.840828,155.77453 274.255305,146.602999 268.854118,140.690528 C209.579245,75.8046228 106.84047,72.1939828 39.2954454,132.28416 Z" id="Oval-67"></path>
                <path d="M5.11586918,56.5751415 C-0.893483846,61.8683262 -1.47405298,71.0308434 3.81913173,77.0401964 C9.11231643,83.0495495 18.2748336,83.6301186 24.2841866,78.3369339 C101.840326,10.0235945 219.543722,14.1918904 287.024989,87.3113754 C292.456151,93.1963233 301.62967,93.5641897 307.514618,88.1330281 C313.399566,82.7018665 313.767432,73.5283472 308.336271,67.6433993 C230.025701,-17.2102011 94.3396348,-22.0153273 5.11586918,56.5751415 Z" id="Oval-67"></path>
            </g>
            <path d="M263,582.5 C263,589.955844 269.044156,596 276.5,596 C283.955844,596 290,589.955844 290,582.5 L290,366.5 C290,359.044156 283.955844,353 276.5,353 C269.044156,353 263,359.044156 263,366.5 L263,582.5 Z" id="Path-2" fill="#FFFFFF"></path>
        </g>
    </g>
</svg>