<svg id="bot-avatar-image" width="128px" height="128px" viewBox="0 0 128 128" version="1.1" xmlns="http://www.w3.org/2000/svg" xmlns:xlink="http://www.w3.org/1999/xlink"><g id="circle-background" stroke="none" stroke-width="1" fill="none" fill-rule="evenodd"><rect fill="#307dc0" x="0" y="0" width="128" height="128"></rect><rect id="circle-background_overlay" fill-opacity="0.85" fill="#FFFFFF" x="0" y="0" width="128" height="128"></rect></g><g id="Body"><path id="Torso" fill-rule="evenodd" clip-rule="evenodd" d="M97.8267 128.181C97.8267 128.181 89.5 104 64.4999 104C39.4998 104 31.1653 128.181 31.1653 128.181H97.8267Z" fill="#307dc0"></path><rect id="Neck" x="60.6709" y="95" width="8.35443" height="11.8261" fill="#307dc0"></rect></g><g id="Ears/ears-1" stroke="none" stroke-width="1" fill="none" fill-rule="evenodd"><path d="M12.1627735,53 L24.9285,53 C27.7294121,53 30,55.2705879 30,58.0715 L30,70.9285 C30,73.7294121 27.7294121,76 24.9285,76 L12,76 L12.1627735,53 Z" id="ears-1_right" fill="#307dc0" transform="translate(21.000000, 64.500000) scale(-1, 1) translate(-21.000000, -64.500000) "></path><path d="M97.1606526,53 L110.9285,53 C113.729412,53 116,55.2705879 116,58.0715 L116,70.9285 C116,73.7294121 113.729412,76 110.9285,76 L97,76 L97.1606526,53 Z" id="ears-1_left" fill="#307dc0"></path><path d="M12.1627735,53 L24.9285,53 C27.7294121,53 30,55.2705879 30,58.0715 L30,70.9285 C30,73.7294121 27.7294121,76 24.9285,76 L12,76 L12.1627735,53 Z" id="ears-1_black-overlay-left" fill-opacity="0.15" fill="#000000" transform="translate(21.000000, 64.500000) scale(-1, 1) translate(-21.000000, -64.500000) "></path><path d="M97.1606526,53 L110.9285,53 C113.729412,53 116,55.2705879 116,58.0715 L116,70.9285 C116,73.7294121 113.729412,76 110.9285,76 L97,76 L97.1606526,53 Z" id="ears-1_black-overlay-right" fill-opacity="0.15" fill="#000000"></path></g><g id="Head/head-4" stroke="none" stroke-width="1" fill="none" fill-rule="evenodd"><path d="M57.5474109,37.3051953 C59.7916385,37.1017318 62.0640492,37 64.3646432,37 C65.5662106,37 66.7575882,37.0277506 67.938776,37.0832519 C88.6474558,38.0563241 105.514514,54.0598752 107.573503,74.6889045 C108.786521,86.8421474 99.9177172,97.6776432 87.7644743,98.8906618 C87.0346191,98.9635088 86.3015916,99 85.56811,99 L42.409364,99 C30.0872803,99 20.0982578,89.0109775 20.0982578,76.6888938 C20.0982578,76.0212225 20.1282284,75.3538878 20.1880791,74.6889045 C21.9746674,54.838654 37.6983301,39.1047332 57.5474109,37.3051953 Z" id="Head-3" fill="#307dc0" transform="translate(64.000000, 68.000000) scale(1, -1) translate(-64.000000, -68.000000) "></path></g><g id="Eyes/eyes-2" stroke="none" stroke-width="1" fill="none" fill-rule="evenodd"><path d="M30,67.6667041 C30,62.2846144 33.4911755,55.2905714 38.0980159,52.5101822 C38.0980159,52.5101822 43.2708748,46 63.3461538,46 C83.4214329,46 89.7650324,52.7446064 89.7650324,52.7446064 C94.3130794,55.6037637 98,62.2782892 98,67.6667041 L98,68.2548646 C98,73.6369542 93.7135312,77.2209075 88.4032406,76.3274267 C88.4032406,76.3274267 75.6131083,73.697819 64,73.697819 C52.3868917,73.697819 39.5967594,76.3274267 39.5967594,76.3274267 C34.2966155,77.2511634 30,73.6432794 30,68.2548646 L30,67.6667041 Z" id="eyes-2_white" fill="#FFFFFF"></path><ellipse id="eyes-2_left" fill="#307dc0" cx="50" cy="63" rx="6" ry="9"></ellipse><ellipse id="eyes-2_black-overlay-left" fill-opacity="0.5" fill="#000000" cx="50" cy="63" rx="6" ry="9"></ellipse><circle id="eyes-2_shine-left" fill="#FFFFFF" cx="51.5" cy="59.5" r="1.5"></circle><ellipse id="eyes-2_right" fill="#307dc0" cx="78" cy="63" rx="6" ry="9"></ellipse><ellipse id="eyes-2_black-overlay-right" fill-opacity="0.5" fill="#000000" cx="78" cy="63" rx="6" ry="9"></ellipse><circle id="eyes-2_shine-right" fill="#FFFFFF" cx="79.5" cy="59.5" r="1.5"></circle></g><g id="Mouth/mouth-2" stroke="none" stroke-width="1" fill="none" fill-rule="evenodd"><path d="M53.0518992,82.1276055 C53.6903252,81.3932862 57.7575124,84.0678974 63.8047994,84.0678974 C69.8520864,84.0678974 74.5166967,81.3985115 74.9737477,82.1276055 C75.4307987,82.8566995 69.8485064,90 63.8047994,90 C57.7610924,90 52.4134732,82.8619248 53.0518992,82.1276055 Z" id="mouth-2" fill="#307dc0"></path><path d="M53.0518992,82.1276055 C53.6903252,81.3932862 57.7575124,84.0678974 63.8047994,84.0678974 C69.8520864,84.0678974 74.5166967,81.3985115 74.9737477,82.1276055 C75.4307987,82.8566995 69.8485064,90 63.8047994,90 C57.7610924,90 52.4134732,82.8619248 53.0518992,82.1276055 Z" id="mouth-2_black-overlay" fill-opacity="0.5" fill="#000000"></path></g><g id="Antenna/antenna-1" stroke="none" stroke-width="1" fill="none" fill-rule="evenodd"><rect id="Rectangle" fill="#307dc0" x="62.4705882" y="25.9714286" width="3.38235294" height="8.22857143"></rect><path d="M75.9999991,39 C75.9999991,35.4960288 70.8512791,32.1428571 64.50001,32.1428571 C58.148741,32.1428571 52.9974466,35.5714286 52.9999991,39 L75.9999991,39 Z" id="Path" fill="#307dc0"></path><path d="M75.9999991,39 C75.9999991,35.4960288 70.8512791,32.1428571 64.50001,32.1428571 C58.148741,32.1428571 52.9974466,35.5714286 52.9999991,39 L75.9999991,39 Z" id="Path" fill-opacity="0.15" fill="#000000"></path><ellipse id="Oval" fill="#307dc0" cx="64.1617647" cy="21.5142857" rx="6.42647059" ry="6.51428571"></ellipse><ellipse id="Oval" fill-opacity="0.15" fill="#000000" cx="64.1617647" cy="21.5142857" rx="6.42647059" ry="6.51428571"></ellipse></g></svg>